<svg width="19" height="19" viewBox="0 0 19 19" fill="none" xmlns="http://www.w3.org/2000/svg">
<g clip-path="url(#clip0_421_78)">
<path d="M6.72938 1.58334H2.77105C2.61407 1.56837 2.45742 1.61509 2.33429 1.7136C2.21115 1.81211 2.13118 1.95468 2.11133 2.11112V17.4167H7.38911V2.11112C7.36925 1.95468 7.28929 1.81211 7.16615 1.7136C7.04301 1.61509 6.88637 1.56837 6.72938 1.58334Z" fill="#1F7564"/>
<path d="M17.8229 16.4086L14.1602 6.75028C14.1356 6.68548 14.0984 6.62615 14.0509 6.57569C14.0034 6.52523 13.9464 6.48463 13.8832 6.4562C13.8199 6.42777 13.7517 6.41208 13.6824 6.41002C13.6132 6.40795 13.5441 6.41956 13.4793 6.44417L11.611 7.17251V4.75001C11.611 4.61003 11.5554 4.47579 11.4564 4.37681C11.3574 4.27783 11.2232 4.22223 11.0832 4.22223H8.44434V17.4167H11.611V7.75306L15.2685 17.4167L17.8229 16.4086Z" fill="#1F7564"/>
</g>
<defs>
<clipPath id="clip0_421_78">
<rect width="19" height="19" fill="white"/>
</clipPath>
</defs>
</svg>
