<svg width="20" height="20" viewBox="0 0 20 20" fill="none" xmlns="http://www.w3.org/2000/svg">
<g clip-path="url(#clip0_223_646)">
<path d="M11.6034 9.83299L9.35739 8.78499C9.16139 8.69399 9.00039 8.79599 9.00039 9.01299V10.987C9.00039 11.204 9.16139 11.306 9.35739 11.215L11.6024 10.167C11.7994 10.075 11.7994 9.92499 11.6034 9.83299ZM10.0004 0.399994C4.69839 0.399994 0.400391 4.69799 0.400391 9.99999C0.400391 15.302 4.69839 19.6 10.0004 19.6C15.3024 19.6 19.6004 15.302 19.6004 9.99999C19.6004 4.69799 15.3024 0.399994 10.0004 0.399994ZM10.0004 13.9C5.08639 13.9 5.00039 13.457 5.00039 9.99999C5.00039 6.54299 5.08639 6.09999 10.0004 6.09999C14.9144 6.09999 15.0004 6.54299 15.0004 9.99999C15.0004 13.457 14.9144 13.9 10.0004 13.9Z" fill="black"/>
</g>
<defs>
<clipPath id="clip0_223_646">
<rect width="20" height="20" fill="white"/>
</clipPath>
</defs>
</svg>
