<svg width="11" height="11" viewBox="0 0 11 11" fill="none" xmlns="http://www.w3.org/2000/svg">
<path d="M4.15 4.15V3.4C3.73579 3.4 3.4 3.73579 3.4 4.15H4.15ZM4.19482 4.15H4.94482C4.94482 3.73579 4.60904 3.4 4.19482 3.4V4.15ZM6.85 4.15V3.4C6.43579 3.4 6.1 3.73579 6.1 4.15H6.85ZM6.88985 4.15H7.63985C7.63985 3.73579 7.30406 3.4 6.88985 3.4V4.15ZM4.19482 4.18604V4.93604C4.60904 4.93604 4.94482 4.60025 4.94482 4.18604H4.19482ZM4.15 4.18604H3.4C3.4 4.60025 3.73579 4.93604 4.15 4.93604V4.18604ZM6.88985 4.18604V4.93604C7.30406 4.93604 7.63985 4.60025 7.63985 4.18604H6.88985ZM6.85 4.18604H6.1C6.1 4.60025 6.43579 4.93604 6.85 4.93604V4.18604ZM4.57769 6.47361C4.35968 6.12141 3.89743 6.01263 3.54523 6.23064C3.19303 6.44866 3.08425 6.9109 3.30227 7.2631L4.57769 6.47361ZM7.69773 7.2631C7.91575 6.9109 7.80697 6.44866 7.45477 6.23064C7.10257 6.01263 6.64032 6.12141 6.42231 6.47361L7.69773 7.2631ZM9.25 5.5C9.25 7.57107 7.57107 9.25 5.5 9.25V10.75C8.3995 10.75 10.75 8.3995 10.75 5.5H9.25ZM5.5 9.25C3.42893 9.25 1.75 7.57107 1.75 5.5H0.25C0.25 8.3995 2.60051 10.75 5.5 10.75V9.25ZM1.75 5.5C1.75 3.42893 3.42893 1.75 5.5 1.75V0.25C2.60051 0.25 0.25 2.60051 0.25 5.5H1.75ZM5.5 1.75C7.57107 1.75 9.25 3.42893 9.25 5.5H10.75C10.75 2.60051 8.3995 0.25 5.5 0.25V1.75ZM4.15 4.9H4.19482V3.4H4.15V4.9ZM6.85 4.9H6.88985V3.4H6.85V4.9ZM3.44482 4.15V4.18604H4.94482V4.15H3.44482ZM4.19482 3.43604H4.15V4.93604H4.19482V3.43604ZM4.9 4.18604V4.15H3.4V4.18604H4.9ZM6.13985 4.15V4.18604H7.63985V4.15H6.13985ZM6.88985 3.43604H6.85V4.93604H6.88985V3.43604ZM7.6 4.18604V4.15H6.1V4.18604H7.6ZM5.5 6.99998C5.12118 6.99998 4.77843 6.7979 4.57769 6.47361L3.30227 7.2631C3.75772 7.99889 4.56711 8.49998 5.5 8.49998V6.99998ZM6.42231 6.47361C6.22157 6.7979 5.87882 6.99998 5.5 6.99998V8.49998C6.43289 8.49998 7.24228 7.99889 7.69773 7.2631L6.42231 6.47361Z" fill="#1A1A1A" fill-opacity="0.5"/>
</svg>
