<svg width="17" height="16" viewBox="0 0 17 16" fill="none" xmlns="http://www.w3.org/2000/svg">
<path d="M12.5464 7.40344L12.6779 6.92104L12.5464 7.40344ZM12.8322 7.68493L13.3188 7.56985L12.8322 7.68493ZM9.04675 3.45728L9.21668 2.98704L9.04675 3.45728ZM9.29437 3.77246L8.80007 3.84775L9.29437 3.77246ZM14.3292 1C14.3292 0.723858 14.1053 0.5 13.8292 0.5C13.553 0.5 13.3292 0.723858 13.3292 1H14.3292ZM13.3292 5.4004C13.3292 5.67654 13.553 5.9004 13.8292 5.9004C14.1053 5.9004 14.3292 5.67654 14.3292 5.4004H13.3292ZM11.6201 2.70996C11.3439 2.70996 11.1201 2.93382 11.1201 3.20996C11.1201 3.4861 11.3439 3.70996 11.6201 3.70996V2.70996ZM16 3.70996C16.2761 3.70996 16.5 3.4861 16.5 3.20996C16.5 2.93382 16.2761 2.70996 16 2.70996V3.70996ZM5.40928 9.9682C5.26334 9.73377 4.955 9.66203 4.72057 9.80797C4.48614 9.95391 4.41441 10.2623 4.56034 10.4967L5.40928 9.9682ZM9.72202 10.4967C9.86795 10.2623 9.79622 9.95391 9.56179 9.80797C9.32736 9.66203 9.01902 9.73377 8.87308 9.9682L9.72202 10.4967ZM5.24722 6.96167V6.46167C4.97108 6.46167 4.74722 6.68552 4.74722 6.96167H5.24722ZM5.30918 6.96167H5.80918C5.80918 6.68552 5.58532 6.46167 5.30918 6.46167V6.96167ZM8.97934 6.96167V6.46167C8.7032 6.46167 8.47934 6.68552 8.47934 6.96167H8.97934ZM9.03442 6.96167H9.53442C9.53442 6.68552 9.31056 6.46167 9.03442 6.46167V6.96167ZM5.30918 7.01119V7.51119C5.58532 7.51119 5.80918 7.28734 5.80918 7.01119H5.30918ZM5.24722 7.01119H4.74722C4.74722 7.28734 4.97108 7.51119 5.24722 7.51119V7.01119ZM9.03442 7.01119V7.51119C9.31056 7.51119 9.53442 7.28734 9.53442 7.01119H9.03442ZM8.97934 7.01119H8.47934C8.47934 7.28734 8.7032 7.51119 8.97934 7.51119V7.01119ZM9.21668 2.98704C8.52296 2.73636 7.77464 2.59987 6.99537 2.59987V3.59987C7.65719 3.59987 8.2906 3.71568 8.87682 3.92752L9.21668 2.98704ZM12.6779 6.92104C11.1727 6.51074 10.0251 5.2496 9.78867 3.69717L8.80007 3.84775C9.0973 5.79909 10.5359 7.37363 12.4149 7.88584L12.6779 6.92104ZM13.4907 9.04993C13.4907 8.54119 13.4313 8.04558 13.3188 7.56985L12.3457 7.80002C12.4405 8.20091 12.4907 8.61928 12.4907 9.04993H13.4907ZM6.99537 15.5C10.5791 15.5 13.4907 12.6158 13.4907 9.04993H12.4907C12.4907 12.0564 10.034 14.5 6.99537 14.5V15.5ZM0.5 9.04993C0.5 12.6158 3.41166 15.5 6.99537 15.5V14.5C3.95678 14.5 1.5 12.0564 1.5 9.04993H0.5ZM6.99537 2.59987C3.41166 2.59987 0.5 5.48409 0.5 9.04993H1.5C1.5 6.04351 3.95678 3.59987 6.99537 3.59987V2.59987ZM12.4149 7.88584C12.4041 7.8829 12.3608 7.86425 12.3457 7.80002L13.3188 7.56985C13.2376 7.22651 12.9668 6.99979 12.6779 6.92104L12.4149 7.88584ZM8.87682 3.92752C8.81729 3.90601 8.80225 3.86203 8.80007 3.84775L9.78867 3.69717C9.74333 3.39948 9.54714 3.10646 9.21668 2.98704L8.87682 3.92752ZM13.3292 1V5.4004H14.3292V1H13.3292ZM11.6201 3.70996H16V2.70996H11.6201V3.70996ZM7.14118 10.9442C6.41796 10.9442 5.77729 10.5593 5.40928 9.9682L4.56034 10.4967C5.09937 11.3625 6.05127 11.9442 7.14118 11.9442V10.9442ZM8.87308 9.9682C8.50507 10.5593 7.8644 10.9442 7.14118 10.9442V11.9442C8.23109 11.9442 9.18299 11.3625 9.72202 10.4967L8.87308 9.9682ZM5.24722 7.46167H5.30918V6.46167H5.24722V7.46167ZM8.97934 7.46167H9.03442V6.46167H8.97934V7.46167ZM4.80918 6.96167V7.01119H5.80918V6.96167H4.80918ZM5.30918 6.51119H5.24722V7.51119H5.30918V6.51119ZM5.74722 7.01119V6.96167H4.74722V7.01119H5.74722ZM8.53442 6.96167V7.01119H9.53442V6.96167H8.53442ZM9.03442 6.51119H8.97934V7.51119H9.03442V6.51119ZM9.47934 7.01119V6.96167H8.47934V7.01119H9.47934Z" fill="#1F7564"/>
</svg>
