<svg width="24" height="22" viewBox="0 0 24 22" fill="none" xmlns="http://www.w3.org/2000/svg">
<path d="M20.5867 1.99302C19.4623 1.20137 18.1303 0.867626 16.8133 1.04759C15.4963 1.22755 14.2742 1.9103 13.3512 2.98171C12.6153 3.79609 11.3795 3.79154 10.6392 2.98171C9.71618 1.9103 8.49404 1.22755 7.17705 1.04759C5.86005 0.867626 4.52801 1.20137 3.40361 1.99302C2.7465 2.47143 2.19255 3.10853 1.78204 3.85796C1.37154 4.6074 1.11481 5.4503 1.03058 6.32533C0.946337 7.20035 1.03669 8.08547 1.29507 8.91629C1.55344 9.74711 1.97334 10.5027 2.52419 11.1281L10.1034 20.1329C11.1318 21.289 12.8682 21.289 13.8966 20.1329L21.482 11.1281C22.0321 10.5015 22.4509 9.74486 22.708 8.91328C22.9652 8.0817 23.0541 7.19611 22.9683 6.32101C22.8826 5.44591 22.6243 4.60334 22.2123 3.85464C21.8003 3.10594 21.245 2.46996 20.5867 1.99302Z" stroke="white" stroke-width="1.5" stroke-linecap="round" stroke-linejoin="round"/>
</svg>
