<svg width="12" height="12" viewBox="0 0 12 12" fill="none" xmlns="http://www.w3.org/2000/svg">
<path d="M7.63783 7.96151C8.03079 8.0925 8.45553 7.88013 8.58651 7.48717C8.7175 7.09421 8.50513 6.66947 8.11217 6.53849L7.63783 7.96151ZM6 6.625H5.25C5.25 6.94782 5.45657 7.23443 5.76283 7.33651L6 6.625ZM6.75 4.01159C6.75 3.59738 6.41421 3.26159 6 3.26159C5.58579 3.26159 5.25 3.59738 5.25 4.01159H6.75ZM8.11217 6.53849L6.23717 5.91349L5.76283 7.33651L7.63783 7.96151L8.11217 6.53849ZM6.75 6.625V4.01159H5.25V6.625H6.75ZM10.25 6C10.25 8.34721 8.34721 10.25 6 10.25V11.75C9.17564 11.75 11.75 9.17564 11.75 6H10.25ZM6 10.25C3.65279 10.25 1.75 8.34721 1.75 6H0.25C0.25 9.17564 2.82436 11.75 6 11.75V10.25ZM1.75 6C1.75 3.65279 3.65279 1.75 6 1.75V0.25C2.82436 0.25 0.25 2.82436 0.25 6H1.75ZM6 1.75C8.34721 1.75 10.25 3.65279 10.25 6H11.75C11.75 2.82436 9.17564 0.25 6 0.25V1.75Z" fill="#1A1A1A" fill-opacity="0.5"/>
</svg>
