<svg width="13" height="12" viewBox="0 0 13 12" fill="none" xmlns="http://www.w3.org/2000/svg">
<path d="M10.7934 1.49651C10.2312 1.10069 9.56515 0.933813 8.90665 1.02379C8.24815 1.11377 7.63709 1.45515 7.17559 1.99085C6.80766 2.39805 6.18975 2.39577 5.81958 1.99085C5.35809 1.45515 4.74702 1.11377 4.08852 1.02379C3.43002 0.933813 2.764 1.10069 2.2018 1.49651C1.87325 1.73572 1.59627 2.05427 1.39102 2.42898C1.18577 2.8037 1.05741 3.22515 1.01529 3.66266C0.973169 4.10018 1.01835 4.54274 1.14753 4.95815C1.27672 5.37356 1.48667 5.75136 1.76209 6.06406L5.55172 10.5665C6.06589 11.1445 6.93411 11.1445 7.44828 10.5665L11.241 6.06406C11.516 5.75075 11.7255 5.37243 11.854 4.95664C11.9826 4.54085 12.027 4.09805 11.9842 3.66051C11.9413 3.22296 11.8121 2.80167 11.6061 2.42732C11.4002 2.05297 11.1225 1.73498 10.7934 1.49651Z" fill="#D9D9D9" stroke="#D9D9D9" stroke-width="1.5" stroke-linecap="round" stroke-linejoin="round"/>
</svg>
