<svg width="8" height="8" viewBox="0 0 8 8" fill="none" xmlns="http://www.w3.org/2000/svg">
<path d="M6.34184 1.29791C6.03518 1.06041 5.6719 0.960288 5.31272 1.01428C4.95354 1.06826 4.62023 1.27309 4.36851 1.59451C4.16781 1.83883 3.83077 1.83746 3.62886 1.59451C3.37714 1.27309 3.04383 1.06826 2.68465 1.01428C2.32547 0.960288 1.96218 1.06041 1.65553 1.29791C1.47632 1.44143 1.32524 1.63256 1.21328 1.85739C1.10133 2.08222 1.03131 2.33509 1.00834 2.5976C0.985365 2.86011 1.01001 3.12564 1.08047 3.37489C1.15094 3.62413 1.26546 3.85082 1.41569 4.03843L3.48276 6.73988C3.76321 7.08671 4.23679 7.08671 4.51724 6.73988L6.58599 4.03843C6.73602 3.85045 6.85025 3.62346 6.92038 3.37398C6.9905 3.12451 7.01475 2.85883 6.99136 2.5963C6.96797 2.33377 6.89753 2.081 6.78517 1.85639C6.67281 1.63178 6.52136 1.44099 6.34184 1.29791Z" stroke="#1A1A1A" stroke-opacity="0.5" stroke-linecap="round" stroke-linejoin="round"/>
</svg>
