<svg width="14" height="13" viewBox="0 0 14 13" fill="none" xmlns="http://www.w3.org/2000/svg">
<path d="M11.6837 1.54616C11.0704 1.11076 10.3438 0.927194 9.62544 1.02617C8.90708 1.12515 8.24046 1.50066 7.73701 2.08994C7.33563 2.53785 6.66155 2.53535 6.25772 2.08994C5.75428 1.50066 5.08766 1.12515 4.3693 1.02617C3.65094 0.927194 2.92437 1.11076 2.31106 1.54616C1.95264 1.80929 1.65048 2.15969 1.42657 2.57188C1.20266 2.98407 1.06263 3.44767 1.01668 3.92893C0.970729 4.41019 1.02001 4.89701 1.16095 5.35396C1.30188 5.81091 1.53091 6.2265 1.83138 6.57046L5.96552 11.5231C6.52642 12.159 7.47358 12.159 8.03448 11.5231L12.172 6.57046C12.472 6.22583 12.7005 5.80967 12.8408 5.3523C12.981 4.89493 13.0295 4.40786 12.9827 3.92656C12.9359 3.44525 12.7951 2.98184 12.5703 2.57005C12.3456 2.15826 12.0427 1.80848 11.6837 1.54616Z" stroke="#1A1A1A" stroke-opacity="0.5" stroke-linecap="round" stroke-linejoin="round"/>
</svg>
