<svg width="20" height="20" viewBox="0 0 20 20" fill="none" xmlns="http://www.w3.org/2000/svg">
<path d="M18.533 16.7403C18.533 16.7403 17.3743 17.8783 17.0904 18.2119C16.6278 18.7055 16.0828 18.9386 15.3684 18.9386C15.2997 18.9386 15.2264 18.9386 15.1577 18.934C13.7975 18.8472 12.5336 18.317 11.5856 17.8646C8.99345 16.6123 6.71734 14.8344 4.82592 12.5812C3.26424 10.7028 2.22007 8.9661 1.52854 7.1014C1.10263 5.96339 0.946916 5.07674 1.01561 4.24037C1.06141 3.70564 1.26749 3.26232 1.64761 2.88298L3.20929 1.32449C3.43369 1.11426 3.67184 1 3.9054 1C4.19392 1 4.42749 1.17367 4.57404 1.31992C4.57862 1.32449 4.5832 1.32906 4.58778 1.33364C4.86714 1.59414 5.13276 1.86379 5.41212 2.15173C5.55409 2.29798 5.70064 2.44423 5.84719 2.59505L7.09745 3.84275C7.5829 4.32721 7.5829 4.7751 7.09745 5.25956C6.96464 5.3921 6.83641 5.52464 6.7036 5.65261C6.3189 6.04565 6.6211 5.74407 6.22267 6.10056C6.21351 6.1097 6.20435 6.11427 6.19977 6.12341C5.80591 6.51646 5.87919 6.90037 5.96162 7.16088C5.9662 7.17459 5.97078 7.1883 5.97536 7.20201C6.30052 7.98811 6.75849 8.7285 7.45461 9.61058L7.45919 9.61515C8.72318 11.1691 10.0559 12.3802 11.526 13.308C11.7137 13.4268 11.9061 13.5228 12.0893 13.6142C12.2541 13.6965 12.4098 13.7742 12.5426 13.8564C12.561 13.8656 12.5793 13.8793 12.5976 13.8884C12.7533 13.9661 12.8999 14.0027 13.051 14.0027C13.4311 14.0027 13.6693 13.765 13.7471 13.6873L14.6448 12.7915C14.8005 12.6361 15.0478 12.4487 15.3363 12.4487C15.6203 12.4487 15.8538 12.6269 15.9958 12.7823C16.0004 12.7869 16.0004 12.7869 16.005 12.7915L18.5284 15.3097C19.0001 15.7759 18.533 16.7403 18.533 16.7403Z" stroke="#5DC674" stroke-width="1.5" stroke-linecap="round" stroke-linejoin="round"/>
</svg>
